<?xml version="1.0" encoding="utf-8"?>
<!-- Generator: Adobe Illustrator 19.0.0, SVG Export Plug-In . SVG Version: 6.00 Build 0)  -->
<svg version="1.1" id="Layer_1" xmlns="http://www.w3.org/2000/svg" xmlns:xlink="http://www.w3.org/1999/xlink" x="0px" y="0px"
	 viewBox="0 0 29.5 28" style="enable-background:new 0 0 29.5 28;" xml:space="preserve">
<style type="text/css">
	.st0{fill:#3FAE2A;stroke:#646569;stroke-width:7.8849;stroke-linecap:round;stroke-miterlimit:10;}
	.st1{fill:#3FAE2A;}
</style>
<g>
	<path class="st0" d="M14.9,20.4"/>
	<path class="st0" d="M14.9,10.9"/>
	<g>
		<path class="st1" d="M14.9,18c-0.7,0-1.2-0.5-1.2-1.2v-5.5c0-0.7,0.5-1.2,1.2-1.2s1.2,0.5,1.2,1.2v5.5C16.1,17.4,15.5,18,14.9,18z
			"/>
		<path class="st1" d="M17.5,9.2h-5.4c-0.7,0-1.2-0.5-1.2-1.2s0.5-1.2,1.2-1.2h5.4c0.7,0,1.2,0.5,1.2,1.2S18.2,9.2,17.5,9.2z"/>
		<path class="st1" d="M17.4,21.3h-5.2c-0.7,0-1.2-0.5-1.2-1.2c0-0.7,0.5-1.2,1.2-1.2h5.2c0.7,0,1.2,0.5,1.2,1.2
			C18.6,20.8,18,21.3,17.4,21.3z"/>
	</g>
	<path class="st1" d="M14.7,26.2C7.9,26.2,2.5,20.7,2.5,14c0-6.7,5.5-12.2,12.2-12.2c6.7,0,12.2,5.5,12.2,12.2
		C26.9,20.7,21.4,26.2,14.7,26.2z M14.7,4c-5.5,0-10,4.5-10,10c0,5.5,4.5,10,10,10c5.5,0,10-4.5,10-10C24.7,8.5,20.2,4,14.7,4z"/>
</g>
</svg>
