<?xml version="1.0" encoding="utf-8"?>
<!-- Generator: Adobe Illustrator 19.0.0, SVG Export Plug-In . SVG Version: 6.00 Build 0)  -->
<svg version="1.1" id="Layer_1" xmlns="http://www.w3.org/2000/svg" xmlns:xlink="http://www.w3.org/1999/xlink" x="0px" y="0px"
	 viewBox="-393 239.6 171.7 82.4" style="enable-background:new -393 239.6 171.7 82.4;" xml:space="preserve">
<style type="text/css">
	.st0{fill:#F9ED32;}
</style>
<path d="M-359.4,279.9c1.3-3.5,2.8-7,4.5-10.4c1.7-3.3,3.6-6.5,6.3-9.1c2.5-2.3,5.8-4.8,9.3-3.7c2.9,0.9,4.5,3.9,6.1,6.2
	c0.9,1.3,1.6,2.6,2.5,3.9c1,1.5,2.3,3.3,4.2,3.8c1.6,0.5,3.4,0.4,4.9-0.4c1.4-0.7,2.2-2,3.2-3.1c1.1-1.2,2.3-2.4,3.6-3.3
	c1.2-0.8,2-1.2,3.4-1.4c3.1-0.3,6.1,1,7.9,3.6c2.1,3.2,3.6,6.9,5.1,10.5c1,2.5,2,4.9,2.9,7.5c0.9,2.7,5.2,1.5,4.3-1.2
	c-2-5.9-4.5-11.8-7.4-17.3c-1.8-3.3-4.5-6.1-8.2-7.2c-3.4-1-7.3-0.4-10.2,1.7c-1.6,1.1-3.1,2.4-4.4,3.9c-0.5,0.6-1,1.3-1.6,1.9
	l-0.3,0.3c-0.3,0.3,0.2-0.1-0.1,0.1c-0.3,0.2-0.2,0.2-0.4,0.2c-0.3,0.1-1,0.1-1.4-0.1c-0.7-0.4-1.3-1.5-1.8-2.2
	c-0.9-1.4-1.7-2.7-2.6-4c-2.1-3.1-4.1-6.1-7.8-7.5c-4.2-1.6-8.3,0-11.7,2.6c-3.8,2.8-6.6,6.5-8.8,10.7c-2.2,4.1-4.1,8.5-5.7,12.9
	c-0.4,1.1,0.5,2.4,1.6,2.7C-360.9,281.8-359.9,281.1-359.4,279.9z M-383.3,298.8c-0.1,0.2-0.3,0.4-0.5,0.7c-0.2,0.2-0.5,0.5-0.8,0.7
	c-0.3,0.2-0.6,0.4-0.9,0.6c-0.3,0.2-0.6,0.2-1,0.2c-0.4,0-0.7-0.1-1-0.4c-0.3-0.2-0.5-0.6-0.7-1.1c-0.1,0.2-0.3,0.3-0.5,0.5
	c-0.2,0.2-0.4,0.3-0.7,0.5c-0.2,0.1-0.5,0.2-0.8,0.3c-0.3,0.1-0.5,0.1-0.8,0.1c-0.3,0-0.5-0.1-0.8-0.2c-0.3-0.1-0.5-0.3-0.7-0.5
	c-0.2-0.2-0.4-0.5-0.5-0.8c-0.1-0.3-0.2-0.6-0.2-1c0-0.4,0.1-0.9,0.2-1.3c0.1-0.5,0.3-0.9,0.5-1.3c0.2-0.4,0.5-0.9,0.8-1.2
	c0.3-0.4,0.6-0.7,1-1c0.3-0.3,0.7-0.5,1.1-0.7c0.4-0.2,0.8-0.3,1.2-0.3c0.1,0,0.2,0,0.3,0.1l0.2,0.2l0.1,0.2l0.2,0.1l0.2,0.1l0.2,0
	l0.2,0l0.2,0l0.2,0c0.1,0,0.1,0.1,0.2,0.1c0.1,0.1,0.1,0.1,0.1,0.2c0,0.1,0,0.2,0,0.4c0,0.3,0,0.6-0.1,0.9c-0.1,0.3-0.1,0.7-0.2,1
	c-0.1,0.4-0.1,0.7-0.2,1.1c-0.1,0.4-0.1,0.7-0.1,1c0,0.3,0,0.5,0.1,0.6c0.1,0.2,0.2,0.2,0.3,0.2c0.1,0,0.2,0,0.4-0.1
	c0.1-0.1,0.3-0.1,0.4-0.2c0.1-0.1,0.3-0.2,0.4-0.3c0.1-0.1,0.3-0.3,0.4-0.4c0.3-0.3,0.6-0.7,0.9-1.1L-383.3,298.8L-383.3,298.8z
	 M-390.8,298.2c0,0.1,0,0.3,0,0.4c0,0.1,0.1,0.3,0.1,0.4c0.1,0.1,0.1,0.2,0.2,0.3c0.1,0.1,0.2,0.1,0.3,0.1c0.2,0,0.4-0.1,0.6-0.3
	c0.2-0.2,0.3-0.4,0.5-0.7c0.1-0.3,0.2-0.5,0.3-0.8c0.1-0.3,0.1-0.5,0.2-0.7l0.5-2.6c-0.2,0-0.5,0.1-0.7,0.2
	c-0.2,0.1-0.4,0.3-0.6,0.5c-0.2,0.2-0.4,0.4-0.6,0.7c-0.2,0.3-0.3,0.5-0.4,0.8c-0.1,0.3-0.2,0.6-0.3,0.9
	C-390.7,297.6-390.8,297.9-390.8,298.2L-390.8,298.2z M-384.4,299.2c0-0.4,0-0.8,0.1-1.3c0-0.5,0.1-1,0.2-1.5s0.1-1,0.2-1.5
	c0.1-0.5,0.2-0.9,0.3-1.2c0.1-0.3,0.2-0.5,0.4-0.7c0.2-0.2,0.4-0.3,0.7-0.3c0.3,0,0.5,0.1,0.7,0.3c0.1,0.2,0.2,0.4,0.2,0.8l0,0.4
	l-0.1,0.5l-0.1,0.5l-0.1,0.5l-0.1,0.4l0,0.2h0.2l0.2-0.3l0.3-0.5l0.3-0.6l0.3-0.6l0.3-0.5l0.2-0.3c0.2-0.3,0.4-0.5,0.6-0.6
	s0.5-0.2,0.8-0.2s0.5,0.1,0.7,0.4c0.2,0.2,0.3,0.6,0.3,1l0,0.3l-0.1,0.5l-0.1,0.7c-0.1,0.2-0.1,0.5-0.1,0.8c0,0.3-0.1,0.5-0.1,0.8
	c0,0.3,0,0.5,0,0.7c0,0.4,0,0.7,0.1,0.9s0.2,0.3,0.4,0.3c0.1,0,0.2,0,0.3-0.1c0.1-0.1,0.2-0.1,0.4-0.2c0.1-0.1,0.3-0.2,0.4-0.3
	l0.4-0.3c0.3-0.3,0.6-0.6,1-0.9l0.1,2l-0.4,0.3l-0.7,0.5c-0.2,0.2-0.5,0.3-0.8,0.5c-0.3,0.1-0.5,0.3-0.8,0.3
	c-0.3,0.1-0.6,0.1-0.9,0.1s-0.6-0.2-0.8-0.7c-0.2-0.5-0.3-1.1-0.3-2c0-0.3,0-0.7,0.1-1.1c0-0.4,0.1-0.8,0.2-1.3h-0.1l-2.3,4.5
	c-0.1,0.2-0.2,0.4-0.4,0.5c-0.1,0.1-0.3,0.1-0.5,0.1c-0.2,0-0.4-0.1-0.6-0.2c-0.1-0.1-0.3-0.2-0.3-0.4s-0.1-0.4-0.2-0.6
	C-384.4,299.6-384.4,299.4-384.4,299.2z M-366.5,299.3c-0.4,0.3-0.8,0.6-1.2,0.9l-0.5,0.3c0,0-0.4,0.2-0.5,0.3
	c-0.2,0.1-0.4,0.1-0.5,0.2c-0.2,0-0.3,0.1-0.5,0.1c-0.1,0-0.2,0-0.4-0.1c-0.2,0-0.3-0.1-0.5-0.2c-0.2-0.1-0.4-0.3-0.6-0.5
	c-0.2-0.2-0.4-0.5-0.5-0.8c-0.2,0.2-0.4,0.4-0.7,0.6c-0.2,0.2-0.5,0.4-0.7,0.5c-0.3,0.1-0.5,0.3-0.8,0.3c-0.3,0.1-0.5,0.1-0.8,0.1
	c-0.4,0-0.7-0.1-1-0.2s-0.5-0.4-0.7-0.6c-0.2-0.3-0.3-0.6-0.4-0.9c-0.1-0.3-0.1-0.7-0.1-1.1c0-0.4,0-0.7,0.1-1.1
	c0.1-0.4,0.2-0.7,0.4-1.1c0.2-0.4,0.4-0.7,0.7-1s0.6-0.6,0.9-0.8s0.7-0.5,1.1-0.6c0.4-0.2,0.8-0.3,1.2-0.3c0-0.7,0.1-1.5,0.2-2.2
	c0.1-0.7,0.3-1.4,0.5-2.1c0.2-0.7,0.4-1.3,0.7-1.8s0.5-1,0.8-1.4c0.3-0.4,0.6-0.7,1-1s0.7-0.3,1.1-0.3c0.3,0,0.5,0.1,0.7,0.2
	c0.2,0.1,0.3,0.3,0.5,0.6c0.1,0.2,0.2,0.5,0.3,0.8s0.1,0.6,0.1,1c0,0.2,0,0.4,0,0.6c-0.1,0.8-0.2,1.6-0.4,2.3
	c-0.2,0.7-0.4,1.4-0.7,2.1c-0.3,0.7-0.6,1.4-0.9,2.1c-0.3,0.7-0.6,1.4-0.9,2.1l-0.1,0.3l-0.1,0.4l-0.1,0.4l0,0.4c0,0.2,0,0.3,0,0.5
	c0,0.2,0.1,0.3,0.1,0.4c0,0.1,0.1,0.2,0.2,0.3c0.1,0.1,0.2,0.1,0.3,0.1c0.1,0,0.2,0,0.4-0.1c0.1,0,0.3-0.1,0.4-0.2l0.4-0.3l0.4-0.3
	c0.3-0.2,0.7-0.5,1-0.8C-366.7,297.3-366.5,299.3-366.5,299.3z M-372.5,294.4c-0.4,0.2-0.7,0.4-1,0.7c-0.3,0.3-0.5,0.6-0.7,1
	c-0.2,0.4-0.4,0.7-0.5,1.1s-0.2,0.7-0.2,1c0,0.1,0,0.2,0,0.3s0.1,0.2,0.1,0.3c0.1,0.1,0.2,0.2,0.3,0.2c0.1,0.1,0.3,0.1,0.5,0.1
	c0.1,0,0.2,0,0.3-0.1c0.1-0.1,0.2-0.1,0.3-0.2l0.3-0.3l0.2-0.3c0.2-0.3,0.3-0.6,0.4-0.9l0-0.4l0-0.6l0-0.7l0-0.6l0-0.5
	C-372.4,294.6-372.5,294.4-372.5,294.4z M-368.4,288.1c0-0.4,0.1-0.7,0.1-1c0-0.3,0-0.5-0.1-0.7c-0.1-0.1-0.1-0.2-0.2-0.2
	c-0.2,0-0.4,0.1-0.5,0.4c-0.2,0.2-0.3,0.5-0.4,0.9c-0.1,0.4-0.2,0.8-0.3,1.2c-0.1,0.4-0.2,0.9-0.2,1.3c-0.1,0.4-0.1,0.8-0.1,1.1
	l-0.1,0.7l-0.1,0.8l0,0.7l0,0.6v0.5c0.3-0.8,0.6-1.5,0.9-2.3c0.1-0.3,0.2-0.7,0.4-1c0.1-0.4,0.2-0.7,0.3-1.1c0.1-0.4,0.2-0.7,0.3-1
	C-368.5,288.7-368.4,288.4-368.4,288.1z M-266.6,289.8c-1,0-1.9-0.7-2.1-1.6c-2.5-9.3-8.3-25-13.3-27.6c-1.3-0.7-2.5-0.8-3.7-0.4
	c-1.7,0.6-3.1,2.3-4,3.5c-1,1.4-1.5,2.7-1.6,2.8c-0.5,1.1-1.8,1.7-2.9,1.2s-1.7-1.8-1.2-2.9c0.3-0.7,3-6.9,8.1-8.8
	c2.4-0.9,4.9-0.6,7.3,0.6c3.7,2,7.4,7.6,11.2,17.2c2.7,6.8,4.3,12.9,4.4,13.2c0.3,1.2-0.4,2.4-1.6,2.7
	C-266.3,289.8-266.4,289.8-266.6,289.8z M-286.7,278.2c-0.6,0-1,0-1,0c-1.2,0-2.2-1.1-2.2-2.3c0-1.2,1.1-2.2,2.3-2.2
	c0.1,0,5.8,0.2,20.7-1.1c1.2-0.1,2.3,0.8,2.4,2c0.1,1.2-0.8,2.3-2,2.4C-278.4,278.1-284.4,278.2-286.7,278.2L-286.7,278.2z
	 M-258,288.9L-258,288.9c-1.3,0-2.3-1.1-2.2-2.3c0.3-9.3-0.3-16.7-0.9-21.3c-0.6-5-1.4-7.8-1.4-7.8c-0.3-1.2,0.4-2.4,1.6-2.7
	c1.2-0.3,2.4,0.4,2.7,1.6c0.1,0.5,3,11.8,2.4,30.3C-255.8,288-256.8,288.9-258,288.9z M-262.5,253c-0.9,0-1.8-0.2-2.6-0.6
	c-0.8-0.4-1.5-1-2-1.7c-0.5-0.7-0.8-1.5-0.9-2.4c-0.1-0.9,0-1.7,0.3-2.6c0.3-0.8,0.7-1.6,1.2-2.4c0.5-0.7,1.1-1.3,1.8-1.9
	c0.7-0.5,1.5-1,2.3-1.3c0.9-0.3,1.8-0.5,2.6-0.5c0.9,0,1.8,0.2,2.6,0.6c0.8,0.4,1.5,1,2,1.7c0.5,0.7,0.8,1.5,0.9,2.4
	c0.1,1.2-0.7,2.3-2,2.5c-1.2,0.1-2.3-0.7-2.5-2c0-0.2-0.1-0.3-0.1-0.4c-0.1-0.1-0.2-0.2-0.3-0.2c-0.2-0.1-0.4-0.1-0.7-0.1
	c-0.3,0-0.7,0.1-1.1,0.2c-0.4,0.1-0.8,0.4-1.1,0.6c-0.4,0.3-0.7,0.6-0.9,1c-0.3,0.3-0.4,0.7-0.5,1.1c-0.1,0.3-0.1,0.6-0.1,0.8
	c0,0.2,0.1,0.3,0.1,0.4c0.1,0.1,0.2,0.2,0.3,0.2c0.2,0.1,0.4,0.1,0.7,0.1c0.3,0,0.7-0.1,1.1-0.2c0.4-0.1,0.8-0.4,1.1-0.6
	c1-0.7,2.4-0.6,3.1,0.4c0.7,1,0.6,2.4-0.4,3.1c-0.7,0.5-1.5,1-2.3,1.3C-260.7,252.8-261.6,253-262.5,253L-262.5,253z M-249.2,293
	L-249.2,293c-1.3,0-2.3-1-2.2-2.3c0-0.9,0.5-23,7.9-31.8c3.3-4,8.1-5.8,13.7-5.3c4.1,0.4,7.2,1.9,7.3,2c1.1,0.5,1.6,1.9,1,3
	c-0.5,1.1-1.9,1.6-3,1c0,0-2.6-1.3-5.9-1.6c-4.1-0.4-7.3,0.9-9.7,3.7c-6.4,7.6-6.9,28.8-6.9,29C-247,292.1-248,293-249.2,293z
	 M-229.3,274.9l-0.3,0c-11.1-1.5-21.3-0.8-21.4-0.8c-1.2,0.1-2.3-0.8-2.4-2.1c-0.1-1.2,0.8-2.3,2.1-2.4c0.4,0,10.8-0.7,22.3,0.8
	c1.2,0.2,2.1,1.3,1.9,2.5C-227.3,274.1-228.2,274.9-229.3,274.9z"/>
<circle class="st0" cx="-312.3" cy="291.9" r="15.2"/>
<path d="M-312.3,274.8c-9.5,0-17.2,7.7-17.2,17.2s7.7,17.2,17.2,17.2c9.5,0,17.2-7.7,17.2-17.2
	C-295.1,282.5-302.8,274.8-312.3,274.8z M-312.3,278.8c7.2,0,13.1,5.9,13.1,13.1c0,7.2-5.9,13.1-13.1,13.1
	c-7.2,0-13.1-5.9-13.1-13.1C-325.4,284.7-319.5,278.8-312.3,278.8z"/>
<path d="M-344.9,309.1c-2.3,0-4.6-0.5-6.7-1.4c-2-0.9-3.9-2.1-5.5-3.7c-1.6-1.6-2.8-3.4-3.7-5.5c-0.9-2.1-1.3-4.4-1.3-6.7
	s0.5-4.6,1.3-6.7c0.9-2,2.1-3.9,3.7-5.5c1.6-1.6,3.4-2.8,5.5-3.7c2.1-0.9,4.4-1.3,6.7-1.3s4.6,0.5,6.7,1.3c2,0.9,3.9,2.1,5.5,3.7
	c0.8,0.8,0.8,2.1,0,2.8c-0.8,0.8-2.1,0.8-2.8,0c-1.2-1.2-2.6-2.2-4.2-2.8c-1.6-0.7-3.3-1-5.1-1c-1.8,0-3.5,0.3-5.1,1
	c-1.6,0.7-3,1.6-4.2,2.8c-1.2,1.2-2.2,2.6-2.8,4.2c-0.7,1.6-1,3.3-1,5.1s0.3,3.5,1,5.1c0.7,1.6,1.6,3,2.8,4.2
	c1.2,1.2,2.6,2.2,4.2,2.8c1.6,0.7,3.3,1,5.1,1s3.5-0.3,5.1-1c1.6-0.7,3-1.6,4.2-2.8c1.2-1.2,2.2-2.6,2.8-4.2c0.4-1,0.7-2,0.9-3.1
	h-13c-1.1,0-2-0.9-2-2s0.9-2,2-2h15.1c1.1,0,2,0.9,2,2c0,2.3-0.5,4.6-1.3,6.7c-0.9,2-2.1,3.9-3.7,5.5c-1.6,1.6-3.4,2.8-5.5,3.7
	C-340.4,308.6-342.6,309.1-344.9,309.1z"/>
<path d="M-334.7,316.4c-3,4.2-9.5,1.9-9.6-3c0-2.1-3.4-2.2-3.3,0c0.1,3.7,2.3,6.9,5.8,8.2c3.8,1.4,7.8-0.3,10-3.4
	C-330.6,316.3-333.5,314.7-334.7,316.4z"/>
</svg>
