<?xml version="1.0" encoding="utf-8"?>
<!-- Generator: Adobe Illustrator 19.0.1, SVG Export Plug-In . SVG Version: 6.00 Build 0)  -->
<svg version="1.1" id="Calque_1" xmlns="http://www.w3.org/2000/svg" xmlns:xlink="http://www.w3.org/1999/xlink" x="0px" y="0px"
	 viewBox="0 0 297.6 297.6" enable-background="new 0 0 297.6 297.6" xml:space="preserve">
<g>
	<path fill="#1D829F" d="M281.7,194.1c0-7.3-5.5-14.9-8.1-15.9c-4.6-1.8-45.1-14.9-45.1-14.9s-60.2-31-95.9-31
		c-35.8,0-63.7,0.3-92.9,4.5L18,162.4V185l-5.3,5.3v15.1l27.3,7.7c-0.2-1.2,43.4,0.6,42.7,2.7h130.6c-0.6-2.1,42.7-1.9,42.1,0h13.3
		l13.3-5.3C282.2,210.5,281.7,203.2,281.7,194.1z"/>
	<g>
		<path fill="#20B8EB" d="M281.7,194.1c0-7.3-5.5-14.9-8.1-15.9c-4.6-1.8-45.1-14.9-45.1-14.9s-60.2-31-95.9-31
			c-35.8,0-63.7,0.3-92.9,4.5L18,162.4V185l-5.3,5.3v15.1l27.3,7.7c-0.2-1.2-0.3-2.5-0.3-3.8c0-12.1,9.9-22,22-22
			c12.1,0,22,9.9,22,22c0,2.3-0.3,4.4-1,6.5h130.6c-0.6-2.1-1-4.2-1-6.5c0-12.1,9.9-22,22-22c12.1,0,22,9.9,22,22
			c0,2.3-0.3,4.4-1,6.5h13.3l13.3-5.3C282.2,210.5,281.7,203.2,281.7,194.1z"/>
		<path fill="#1D829F" d="M285,212.5c0,1.8-1.5,3.2-3.2,3.2H266c-1.8,0-3.2-1.5-3.2-3.2v-4c0-1.8,1.5-3.2,3.2-3.2h15.8
			c1.8,0,3.2,1.5,3.2,3.2V212.5z"/>
		<path fill="#1D829F" d="M31.7,206.4c0,1.8-1.5,3.2-3.2,3.2H12.7c-1.8,0-3.2-1.5-3.2-3.2v-4c0-1.8,1.5-3.2,3.2-3.2h15.8
			c1.8,0,3.2,1.5,3.2,3.2V206.4z"/>
		<circle fill="#646569" cx="234.5" cy="209.3" r="18.8"/>
		<circle fill="#CAC9CA" cx="234.5" cy="209.3" r="11.9"/>
		<circle fill="#646569" cx="61.7" cy="209.3" r="18.8"/>
		<circle fill="#CAC9CA" cx="61.7" cy="209.3" r="11.9"/>
		<polygon fill="#F4F2F2" points="18,177.2 24.7,177.2 24.7,172.8 33.8,163.7 24.7,154.5 18,162.4 		"/>
		<path fill="#CAC9CA" d="M41.8,140.5C41.8,140.5,41.8,140.5,41.8,140.5L41.8,140.5C41.8,140.5,41.8,140.5,41.8,140.5z"/>
		<path fill="#646569" d="M144.8,163.9l76.6,5c0,0-15.2-9.8-35.5-18.8c-13.9-5.1-29.2-9.8-42.6-11.6L144.8,163.9z"/>
		<g>
			<path fill="#646569" d="M81.8,138.5c-13.2,0.6-25.8,1.6-38.5,3.3l19.2,16L81.8,138.5z"/>
			<path fill="#646569" d="M132.6,137.8c-17.1,0-32.4,0.1-47,0.6l-20.3,20.3l66.2,4.3l1.6-25.2C132.9,137.8,132.8,137.8,132.6,137.8
				z"/>
		</g>
		<g>
			<path fill="#1D829F" d="M156,180.2c0-0.6-0.5-1.2-1.2-1.2h-8.7c-0.6,0-1.2,0.5-1.2,1.2v0.7c0,0.6,0.5,1.2,1.2,1.2h8.7
				c0.6,0,1.2-0.5,1.2-1.2V180.2z"/>
		</g>
		<g>
			<path fill="#1D829F" d="M79,180.2c0-0.6-0.5-1.2-1.2-1.2h-8.7c-0.6,0-1.2,0.5-1.2,1.2v0.7c0,0.6,0.5,1.2,1.2,1.2h8.7
				c0.6,0,1.2-0.5,1.2-1.2V180.2z"/>
		</g>
		<g>
			<path fill="#F4F2F2" d="M271.5,195.4h10.2c0-0.4,0-0.9,0-1.3c0-3.3-1.1-6.6-2.6-9.4C274.7,186.4,271.5,190.8,271.5,195.4z"/>
		</g>
		<g>
			<defs>
				<path id="SVGID_3_" d="M281.7,194.1c0-7.3-5.5-14.9-8.1-15.9c-4.6-1.8-45.1-14.9-45.1-14.9s-60.2-31-95.9-31
					c-35.8,0-63.7,0.3-92.9,4.5L18,162.4V185l-5.3,5.3v15.1l27.3,7.7c-0.2-1.2-0.3-2.5-0.3-3.8c0-12.1,9.9-22,22-22
					c12.1,0,22,9.9,22,22c0,2.3-0.3,4.4-1,6.5h130.6c-0.6-2.1-1-4.2-1-6.5c0-12.1,9.9-3,22-3c12.1,0,22,9.9,22,22
					c0,2.3-0.3-14.6-1-12.5h13.3l13.3-5.3C282.2,210.5,281.7,203.2,281.7,194.1z"/>
			</defs>
			<clipPath id="SVGID_1_">
				<use xlink:href="#SVGID_3_"  overflow="visible"/>
			</clipPath>
		</g>
	</g>
</g>
<g>
	<path fill="#353433" d="M283.6,128.5l4.4-17.6V99.7v-0.3V88.2l-4.4-18.2l-2.4-2.1h-41.6h-41.6l-2.6,2.1L191,88.2v11.2v0.3v11.2
		l4.6,17.6l2.6,1.5h41.6h41.6L283.6,128.5z M197,104.5c0,0.8-0.7,1.5-1.5,1.5l0,0c-0.8,0-1.5-0.7-1.5-1.5v-14c0-0.8,0.7-1.5,1.5-1.5
		l0,0c0.8,0,1.5,0.7,1.5,1.5V104.5z M284,104.5c0,0.8-0.7,1.5-1.5,1.5l0,0c-0.8,0-1.5-0.7-1.5-1.5v-14c0-0.8,0.7-1.5,1.5-1.5l0,0
		c0.8,0,1.5,0.7,1.5,1.5V104.5z"/>
	<path fill="#E8E6E7" d="M224.1,96.8c-0.3,0-0.6,0.3-0.6,0.6v7c0,0.3,0.3,0.6,0.6,0.6s0.6-0.3,0.6-0.6v-7
		C224.7,97.1,224.4,96.8,224.1,96.8z"/>
	<path fill="#E8E6E7" d="M224.4,94.5c-0.3-0.2-0.7-0.2-0.9,0.1l-3.6,4.1l-3.7-4.1c-0.2-0.3-0.6-0.3-0.9-0.1
		c-0.1,0.1-0.2,0.3-0.2,0.4c0,0,0,0.1,0,0.1v9.4c0,0.3,0.3,0.6,0.6,0.6c0.3,0,0.6-0.3,0.6-0.6v-7.8l3,3.4c0.1,0.1,0.3,0.2,0.5,0.2
		c0,0,0,0,0.1,0c0,0,0,0,0.1,0c0.2,0,0.4-0.1,0.5-0.2l4-4.6C224.7,95.1,224.7,94.7,224.4,94.5z"/>
	<path fill="#E8E6E7" d="M234.1,95.7c0.3,0,0.6-0.3,0.6-0.6c0-0.3-0.3-0.6-0.6-0.6h-5.6c-0.1,0-0.1,0-0.2,0c-0.3,0-0.6,0.3-0.6,0.6
		v9.3c0,0,0,0,0,0c0,0,0,0,0,0c0,0.3,0.3,0.6,0.6,0.6h5.7c0.3,0,0.6-0.3,0.6-0.6c0-0.3-0.3-0.6-0.6-0.6h-5.1v-3.8h2.8
		c0.3,0,0.6-0.3,0.6-0.6c0-0.3-0.3-0.6-0.6-0.6h-2.8v-3.1H234.1z"/>
	<path fill="#E8E6E7" d="M244.1,94.5h-7c-0.3,0-0.6,0.3-0.6,0.6s0.3,0.6,0.6,0.6h2.8v8.8c0,0.3,0.3,0.6,0.6,0.6
		c0.3,0,0.6-0.3,0.6-0.6v-8.8h2.9c0.3,0,0.6-0.3,0.6-0.6S244.4,94.5,244.1,94.5z"/>
	<path fill="#E8E6E7" d="M265.2,94.4c-0.3,0-0.6,0.3-0.6,0.6v9.4c0,0.4,0.3,0.6,0.6,0.6c0.3,0,0.6-0.3,0.6-0.6V95
		C265.8,94.7,265.5,94.4,265.2,94.4z"/>
	<path fill="#E8E6E7" d="M272,104.1l-4.1-4.4l4-4c0.2-0.2,0.2-0.6,0-0.9c-0.2-0.2-0.6-0.2-0.9,0l-4.4,4.4c-0.2,0.3-0.2,0.6,0,0.9
		c0,0,0,0,0,0c0,0,0,0,0,0l4.4,4.8c0.1,0.1,0.3,0.2,0.5,0.2c0.2,0,0.3-0.1,0.4-0.2C272.2,104.7,272.2,104.3,272,104.1z"/>
	<path fill="#E8E6E7" d="M251.9,99.9c1.3-0.2,2.3-1.3,2.3-2.7c0-1.4-1.1-2.8-2.8-2.8h-4c-0.1,0-0.1,0-0.2,0
		c-0.3,0.1-0.5,0.3-0.5,0.6v9.4c0,0.3,0.3,0.6,0.6,0.6c0.3,0,0.6-0.3,0.6-0.6v-8.8h3.4c1,0,1.6,0.8,1.6,1.6c0,0.8-0.7,1.5-1.6,1.5
		h-2.1c-0.3,0-0.6,0.3-0.6,0.6c0,0.3,0.3,0.6,0.6,0.6h1.2l2.9,4.8c0.1,0.2,0.3,0.3,0.5,0.3c0.1,0,0.2,0,0.3-0.1
		c0.3-0.2,0.4-0.6,0.2-0.9L251.9,99.9z"/>
	<g>
		<path fill="#E8E6E7" d="M210.6,102.6v-5.6c0-0.3-0.3-0.6-0.6-0.6c-0.3,0-0.6,0.3-0.6,0.6v5.6c0,0.3,0.3,0.6,0.6,0.6
			C210.4,103.2,210.6,102.9,210.6,102.6z"/>
		<path fill="#E8E6E7" d="M211.9,94.4h-4c-0.3,0-0.6,0.3-0.6,0.6c0,0.3,0.3,0.6,0.6,0.6h4c0.3,0,0.6-0.3,0.6-0.6
			C212.5,94.7,212.3,94.4,211.9,94.4z"/>
		<path fill="#E8E6E7" d="M211.9,103.8h-3.8c-0.3,0-0.6,0.3-0.6,0.6c0,0.3,0.3,0.6,0.6,0.6h3.8c0.3,0,0.6-0.3,0.6-0.6
			C212.5,104.1,212.3,103.8,211.9,103.8z"/>
	</g>
	<path fill="#E8E6E7" d="M259.8,102.6v-5.6c0-0.3-0.3-0.6-0.6-0.6s-0.6,0.3-0.6,0.6v5.6c0,0.3,0.3,0.6,0.6,0.6
		S259.8,102.9,259.8,102.6z"/>
	<path fill="#E8E6E7" d="M261.1,94.4h-4c-0.3,0-0.6,0.3-0.6,0.6c0,0.3,0.3,0.6,0.6,0.6h4c0.3,0,0.6-0.3,0.6-0.6
		C261.7,94.7,261.4,94.4,261.1,94.4z"/>
	<path fill="#E8E6E7" d="M261.1,103.8h-3.8c-0.3,0-0.6,0.3-0.6,0.6c0,0.3,0.3,0.6,0.6,0.6h3.8c0.3,0,0.6-0.3,0.6-0.6
		C261.7,104.1,261.4,103.8,261.1,103.8z"/>
</g>
<line fill="#646569" stroke="#1D829F" stroke-width="0.25" stroke-miterlimit="10" x1="137.4" y1="132.6" x2="137.2" y2="215.8"/>
<line fill="none" stroke="#1D829F" stroke-width="0.25" stroke-miterlimit="10" x1="89.1" y1="133" x2="64.4" y2="157.6"/>
<line fill="none" stroke="#1D829F" stroke-width="0.25" stroke-miterlimit="10" x1="64.4" y1="157.6" x2="64.4" y2="187.3"/>
<g>
	<g>
		
			<line fill="none" stroke="#646569" stroke-width="2.0128" stroke-linecap="round" stroke-linejoin="round" x1="261.4" y1="172.5" x2="261.4" y2="171.1"/>
		
			<line fill="none" stroke="#646569" stroke-width="2.0128" stroke-linecap="round" stroke-linejoin="round" stroke-dasharray="2.5035,4.3811" x1="261.4" y1="166.7" x2="261.5" y2="134.5"/>
		
			<line fill="none" stroke="#646569" stroke-width="2.0128" stroke-linecap="round" stroke-linejoin="round" x1="261.5" y1="132.3" x2="261.5" y2="131"/>
	</g>
</g>
</svg>
