<svg xmlns="http://www.w3.org/2000/svg" width="171.709" height="82.414" viewBox="0 0 171.70946 82.413773"><path d="M33.565 40.343c1.301-3.545 2.831-7.041 4.519-10.418 1.671-3.342 3.62-6.547 6.348-9.135 2.462-2.335 5.809-4.769 9.348-3.685 2.9.889 4.498 3.871 6.089 6.238.864 1.286 1.635 2.626 2.492 3.914 1.015 1.524 2.324 3.281 4.175 3.816 1.564.452 3.4.357 4.854-.39 1.366-.701 2.213-2.009 3.196-3.129 1.065-1.213 2.29-2.39 3.631-3.298 1.169-.792 2.007-1.242 3.384-1.367 3.066-.278 6.147.995 7.868 3.623 2.111 3.223 3.621 6.925 5.088 10.474 1.022 2.474 2.037 4.933 2.885 7.471.904 2.707 5.208 1.546 4.296-1.185-1.975-5.915-4.468-11.826-7.445-17.304-1.78-3.276-4.512-6.122-8.221-7.152-3.449-.958-7.295-.36-10.227 1.675-1.604 1.114-3.121 2.444-4.41 3.912-.539.614-1.018 1.284-1.583 1.874l-.3.295c-.334.295.201-.135-.112.091-.266.192-.243.169-.415.195-.34.051-.999.065-1.376-.147-.743-.417-1.327-1.508-1.765-2.203-.854-1.354-1.685-2.708-2.586-4.033-2.102-3.087-4.142-6.092-7.771-7.471-4.189-1.592-8.333.006-11.744 2.55-3.774 2.814-6.593 6.548-8.802 10.676-2.211 4.133-4.101 8.528-5.714 12.927-.415 1.13.464 2.441 1.556 2.741 1.244.342 2.326-.421 2.742-1.555zm-23.902 18.911c-.134.186-.312.403-.536.653-.223.25-.474.488-.753.714-.278.226-.578.418-.896.575-.319.157-.639.235-.958.235-.383 0-.703-.124-.958-.37-.256-.247-.476-.605-.662-1.075-.139.163-.311.328-.514.496-.203.168-.425.321-.666.457-.241.136-.492.248-.753.335-.261.087-.522.131-.784.131-.278 0-.55-.057-.813-.17-.264-.113-.498-.275-.701-.488-.203-.211-.365-.47-.487-.774-.121-.306-.182-.649-.182-1.032 0-.435.061-.882.183-1.34.122-.458.29-.907.505-1.345.214-.438.469-.852.762-1.24.293-.388.614-.728.962-1.019.348-.29.715-.521 1.102-.692.386-.171.779-.257 1.179-.257.133 0 .238.026.313.078l.187.179.144.196.174.139.213.057.222.013.196-.004.195-.004.244.026c.075.018.142.056.2.113.058.058.103.139.135.244.032.105.048.247.048.427 0 .278-.029.587-.087.927-.058.34-.122.688-.191 1.044-.07.357-.134.714-.192 1.071-.058.356-.087.695-.087 1.014 0 .273.025.486.074.64.05.154.155.231.318.231.122 0 .25-.031.383-.091.133-.062.269-.141.405-.24s.273-.21.409-.335c.137-.125.266-.254.388-.388.284-.313.571-.667.862-1.062l.417 1.931zm-7.434-.687c0 .145.01.286.03.422.021.137.057.258.109.366.052.108.122.194.209.261.087.066.197.1.331.1.214 0 .409-.093.583-.278.174-.186.325-.41.453-.67.127-.261.23-.531.309-.81.079-.279.129-.511.153-.697l.531-2.559c-.238 0-.47.06-.696.178-.227.119-.44.28-.64.483-.201.203-.385.435-.553.696-.168.261-.313.536-.435.823-.122.288-.216.576-.283.866-.068.291-.101.564-.101.819zm6.406 1.001c0-.383.023-.826.07-1.328.046-.502.104-1.013.174-1.532.07-.519.148-1.02.235-1.501.087-.481.171-.894.252-1.236.063-.267.187-.49.37-.67.183-.18.431-.27.745-.27.313 0 .531.096.653.287.122.191.183.447.183.766l-.026.353-.065.488-.083.548-.083.522-.065.418-.026.239h.174l.165-.309.261-.492.318-.587.318-.592.27-.5.183-.322c.186-.313.397-.528.635-.644.238-.116.502-.174.792-.174.29 0 .521.122.692.366.171.244.257.58.257 1.01l-.04.322-.1.54-.135.688c-.05.25-.095.505-.135.766-.041.261-.074.52-.101.775-.025.255-.039.491-.039.705 0 .36.045.656.135.888.09.232.23.349.422.349.087 0 .187-.026.3-.079.114-.052.235-.121.366-.205.131-.084.264-.181.4-.292l.405-.34c.307-.272.629-.58.966-.922l.148 1.95-.435.331-.727.54c-.247.18-.504.341-.771.483-.267.143-.546.258-.836.348-.291.09-.595.135-.914.135-.319 0-.588-.23-.805-.692-.218-.461-.326-1.136-.326-2.023 0-.349.023-.724.069-1.128.046-.403.104-.836.174-1.301h-.14l-2.281 4.526c-.116.238-.247.4-.392.488-.145.087-.313.13-.505.13-.238 0-.43-.051-.574-.152-.146-.102-.257-.238-.335-.409-.078-.171-.13-.365-.157-.583-.023-.221-.036-.446-.036-.678zm17.889.113c-.413.319-.818.604-1.219.853l-.531.309s-.369.191-.548.27c-.18.079-.355.143-.526.191-.171.049-.33.074-.475.074-.082 0-.202-.018-.361-.052-.16-.035-.334-.106-.522-.213-.189-.107-.377-.262-.566-.465-.188-.203-.352-.473-.492-.81-.215.209-.442.408-.683.596-.241.189-.491.353-.749.492s-.52.251-.784.335c-.264.084-.53.126-.796.126-.377 0-.704-.081-.979-.244-.275-.163-.505-.379-.688-.648-.182-.27-.319-.576-.409-.918-.09-.342-.135-.696-.135-1.062 0-.371.048-.747.143-1.127.096-.38.235-.749.418-1.105.183-.357.405-.694.666-1.01.261-.316.557-.598.888-.845.331-.247.69-.451 1.079-.613.389-.163.804-.264 1.245-.305.018-.742.084-1.477.2-2.202.116-.725.27-1.416.461-2.072.191-.656.417-1.262.675-1.819.258-.557.541-1.039.849-1.445.307-.406.635-.724.983-.953.348-.229.708-.344 1.08-.344.272 0 .505.071.696.213.191.142.347.331.466.566.119.235.205.508.257.818.052.31.078.631.078.961 0 .203-.008.413-.026.627-.076.818-.215 1.592-.418 2.32-.203.729-.441 1.438-.714 2.128-.273.691-.569 1.375-.888 2.054-.319.679-.63 1.384-.932 2.116l-.087.296-.083.379-.065.418-.026.413c0 .168.01.328.031.479.02.151.053.286.1.404.046.119.109.213.187.283.079.07.175.104.292.104.11 0 .23-.022.362-.065.13-.044.268-.104.413-.179l.44-.257.431-.292c.319-.232.653-.496 1.001-.792l.261 2.012zm-5.989-4.875c-.383.186-.724.431-1.023.735-.299.305-.548.634-.749.988-.201.354-.353.711-.457 1.071-.104.36-.157.685-.157.975 0 .116.013.232.039.348.026.116.074.221.144.313.069.093.168.169.296.227.127.058.293.087.496.087.104 0 .208-.026.309-.078.101-.052.199-.121.292-.205l.266-.287.23-.335c.162-.267.311-.568.444-.905l-.044-.388-.026-.592-.018-.675-.013-.635-.013-.47-.016-.174zm4.091-6.311c.035-.406.052-.728.052-.966 0-.313-.027-.531-.083-.653-.055-.122-.135-.183-.239-.183-.186 0-.354.118-.505.353-.151.235-.285.535-.4.901-.117.366-.218.77-.305 1.21-.087.441-.16.868-.218 1.28-.058.412-.104.784-.139 1.114l-.07.705-.057.823-.03.722-.009.57v.462c.331-.754.635-1.506.914-2.254.116-.319.233-.654.353-1.006.119-.351.228-.703.327-1.057.098-.354.184-.702.256-1.045.074-.344.125-.668.153-.976zm101.736 1.768c-.982 0-1.882-.655-2.15-1.648-2.502-9.276-8.337-24.975-13.341-27.609-1.316-.693-2.528-.823-3.705-.396-1.696.613-3.093 2.252-3.966 3.519-.998 1.448-1.545 2.743-1.55 2.756-.471 1.137-1.774 1.677-2.911 1.207s-1.677-1.773-1.207-2.911c.291-.701 2.983-6.905 8.118-8.762 2.354-.851 4.877-.628 7.295.644 3.748 1.972 7.399 7.594 11.165 17.185 2.662 6.779 4.334 12.949 4.404 13.208.32 1.188-.383 2.411-1.571 2.731-.194.051-.389.076-.581.076zm-20.017-11.672c-.648 0-.973-.01-1.025-.012-1.23-.041-2.193-1.071-2.152-2.301.041-1.23 1.081-2.196 2.301-2.152.128.003 5.794.153 20.714-1.065 1.227-.101 2.302.813 2.402 2.039.1 1.227-.813 2.302-2.039 2.402-11.902.972-17.967 1.089-20.201 1.089zm28.679 10.761l-.073-.001c-1.23-.04-2.194-1.069-2.155-2.299.3-9.311-.342-16.717-.934-21.291-.642-4.959-1.364-7.75-1.371-7.778-.311-1.19.401-2.408 1.59-2.72 1.188-.311 2.407.398 2.72 1.587.125.474 3.046 11.815 2.449 30.344-.039 1.207-1.028 2.158-2.226 2.158zm-4.482-35.984c-.941 0-1.816-.193-2.601-.574-.798-.388-1.484-.972-1.981-1.688-.488-.702-.801-1.542-.904-2.428-.101-.857-.012-1.747.262-2.645.256-.838.664-1.644 1.21-2.395.514-.704 1.131-1.334 1.835-1.874.708-.542 1.476-.971 2.281-1.272.87-.326 1.752-.492 2.622-.492.941 0 1.816.193 2.601.574.798.388 1.483.972 1.981 1.688.495.713.799 1.53.904 2.428.143 1.222-.731 2.329-1.954 2.472-1.219.145-2.329-.731-2.472-1.954-.02-.163-.066-.299-.14-.405-.064-.093-.151-.165-.268-.221-.17-.083-.396-.126-.654-.126-.333 0-.69.07-1.06.208-.388.146-.78.366-1.135.637-.359.275-.686.607-.942.96-.254.349-.439.709-.55 1.073-.092.301-.126.586-.098.824.02.163.066.299.139.405.065.093.152.166.268.221.17.083.396.126.654.126.333 0 .69-.07 1.06-.208.388-.145.78-.366 1.135-.637.977-.748 2.375-.562 3.124.415.748.977.562 2.375-.415 3.123-.709.543-1.477.971-2.282 1.272-.869.327-1.751.493-2.62.493zm13.245 40.095h-.047c-1.229-.025-2.206-1.042-2.182-2.272.019-.934.547-22.971 7.947-31.789 3.349-3.99 8.08-5.807 13.678-5.254 4.056.401 7.16 1.927 7.291 1.992 1.102.548 1.55 1.886 1.001 2.987-.548 1.102-1.885 1.551-2.987 1.001-.02-.01-2.6-1.261-5.867-1.558-4.069-.371-7.333.873-9.702 3.696-6.393 7.617-6.901 28.801-6.905 29.014-.026 1.215-1.018 2.183-2.227 2.183zm19.904-18.15l-.304-.021c-11.078-1.513-21.271-.807-21.373-.799-1.225.088-2.293-.835-2.382-2.062-.088-1.227.835-2.293 2.062-2.382.434-.031 10.761-.747 22.295.829 1.22.167 2.072 1.29 1.906 2.509-.152 1.116-1.107 1.926-2.204 1.926z"/><circle cx="80.717" cy="52.36" r="15.15" fill="#f9ed32"/><path d="M80.717 35.205c-9.459 0-17.156 7.694-17.156 17.154s7.697 17.156 17.156 17.156c9.46 0 17.154-7.697 17.154-17.156s-7.695-17.154-17.154-17.154zm0 4.01c7.249 0 13.145 5.897 13.145 13.145 0 7.249-5.896 13.146-13.145 13.146-7.248 0-13.146-5.897-13.146-13.146 0-7.248 5.898-13.145 13.146-13.145z"/><path d="M48.085 69.516c-2.315 0-4.562-.454-6.678-1.35-2.043-.864-3.878-2.101-5.452-3.676-1.575-1.575-2.812-3.409-3.676-5.452-.895-2.116-1.349-4.363-1.349-6.678 0-2.315.454-4.562 1.349-6.678.864-2.043 2.101-3.877 3.676-5.452 1.575-1.575 3.409-2.812 5.453-3.676 2.116-.895 4.363-1.349 6.678-1.349 2.315 0 4.562.454 6.679 1.349 2.042.864 3.877 2.101 5.452 3.676.783.783.783 2.053 0 2.835-.783.783-2.053.783-2.836 0-1.208-1.208-2.614-2.156-4.179-2.818-1.619-.685-3.34-1.032-5.116-1.032-1.775 0-3.497.347-5.116 1.032-1.565.662-2.971 1.61-4.179 2.818-1.208 1.208-2.156 2.614-2.818 4.179-.685 1.619-1.032 3.34-1.032 5.116 0 1.776.347 3.497 1.032 5.116.662 1.565 1.61 2.971 2.818 4.179 1.208 1.208 2.614 2.155 4.179 2.817 1.619.686 3.34 1.032 5.116 1.032 1.776 0 3.497-.347 5.116-1.032 1.565-.662 2.971-1.61 4.179-2.817 1.208-1.208 2.156-2.614 2.818-4.179.424-1.001.718-2.042.881-3.111h-12.995c-1.107 0-2.005-.898-2.005-2.005 0-1.107.897-2.005 2.005-2.005h15.15c1.107 0 2.005.897 2.005 2.005 0 2.315-.454 4.562-1.349 6.678-.864 2.043-2.101 3.878-3.676 5.453-1.575 1.574-3.409 2.811-5.452 3.675-2.116.896-4.363 1.35-6.678 1.35z"/><path d="M58.307 76.827c-2.972 4.188-9.494 1.944-9.604-3.044-.047-2.147-3.389-2.155-3.342 0 .081 3.684 2.333 6.898 5.814 8.151 3.753 1.351 7.777-.265 10.017-3.421 1.247-1.758-1.65-3.429-2.885-1.686z"/></svg>